# xmcd CD database file
#
# Track frame offsets:
#        150
#        21681
#        39874
#        60975
#        80306
#        100140
#        119344
#        140595
#
# Disc length: 2160 seconds
#
# Revision: 0
# Processed by: cddbd v1.5.2PL0 Copyright (c) Steve Scherf et al.
# Submitted via: CUERipper 2.1.5
#
DISCID=62086e08
DTITLE=Digimusic Essentials Collection - Pop R&B
DYEAR=2005
DGENRE=Rhythm and Blues
TTITLE0=Step Into My World
TTITLE1=Color Of My Love
TTITLE2=Melt Down
TTITLE3=Urban Glee
TTITLE4=Came To Dance
TTITLE5=I  Thank You
TTITLE6=Let's Get Krunk And Get Crazy
TTITLE7=On The Floor
EXTD=
EXTT0=
EXTT1=
EXTT2=
EXTT3=
EXTT4=
EXTT5=
EXTT6=
EXTT7=
PLAYORDER=
